<svg width="24" height="24" viewBox="0 0 24 24" fill="none" xmlns="http://www.w3.org/2000/svg">
<path d="M21.9647 10.7672L17.7459 14.4075L19.0313 19.8516C19.1022 20.1471 19.0839 20.457 18.9788 20.7422C18.8736 21.0273 18.6864 21.2749 18.4406 21.4537C18.1948 21.6325 17.9015 21.7344 17.5979 21.7466C17.2942 21.7588 16.9937 21.6807 16.7344 21.5222L12 18.6084L7.26282 21.5222C7.00353 21.6798 6.70341 21.7571 6.40026 21.7445C6.0971 21.7318 5.80446 21.6298 5.55919 21.4512C5.31392 21.2726 5.12698 21.0254 5.02191 20.7407C4.91685 20.4561 4.89835 20.1467 4.96875 19.8516L6.25875 14.4075L2.04 10.7672C1.81059 10.5689 1.64468 10.3075 1.56299 10.0155C1.48129 9.72345 1.48743 9.41385 1.58064 9.12531C1.67385 8.83678 1.85 8.5821 2.08709 8.39308C2.32418 8.20407 2.6117 8.08908 2.91375 8.0625L8.445 7.61625L10.5788 2.4525C10.6942 2.17108 10.8908 1.93036 11.1435 1.76094C11.3961 1.59153 11.6935 1.50107 11.9977 1.50107C12.3019 1.50107 12.5992 1.59153 12.8518 1.76094C13.1045 1.93036 13.3011 2.17108 13.4166 2.4525L15.5494 7.61625L21.0806 8.0625C21.3833 8.0881 21.6716 8.20244 21.9096 8.39119C22.1475 8.57995 22.3245 8.83473 22.4183 9.12361C22.5121 9.4125 22.5185 9.72264 22.4368 10.0152C22.3552 10.3077 22.189 10.5696 21.9591 10.7681L21.9647 10.7672Z" fill="#FFDD02"/>
</svg>
