<svg width="80" height="80" viewBox="0 0 80 80" fill="none" xmlns="http://www.w3.org/2000/svg">
<path d="M71.4406 18.8C71.2647 18.5887 71.0444 18.4188 70.7955 18.3021C70.5465 18.1855 70.2749 18.125 70 18.125H19.0625L17.0719 7.16562C16.9936 6.73358 16.7661 6.34273 16.4292 6.06118C16.0923 5.77964 15.6672 5.62528 15.2281 5.625H7.5C7.00272 5.625 6.52581 5.82254 6.17417 6.17417C5.82254 6.52581 5.625 7.00272 5.625 7.5C5.625 7.99728 5.82254 8.47419 6.17417 8.82583C6.52581 9.17746 7.00272 9.375 7.5 9.375H13.6625L21.7281 53.7312C21.981 55.1298 22.6624 56.4152 23.6781 57.4094C22.4507 58.3898 21.5338 59.705 21.0385 61.1958C20.5432 62.6866 20.4906 64.289 20.8872 65.809C21.2839 67.3291 22.1126 68.7015 23.2732 69.7602C24.4337 70.819 25.8763 71.5186 27.4263 71.7743C28.9762 72.0301 30.5671 71.831 32.0062 71.2013C33.4454 70.5715 34.6711 69.538 35.5351 68.226C36.399 66.914 36.864 65.3796 36.8739 63.8087C36.8837 62.2378 36.438 60.6978 35.5906 59.375H51.9094C50.9377 60.8956 50.4999 62.6963 50.665 64.4933C50.83 66.2902 51.5886 67.981 52.821 69.2991C54.0535 70.6172 55.6896 71.4875 57.4714 71.7728C59.2532 72.0581 61.0793 71.7421 62.6616 70.8747C64.244 70.0072 65.4925 68.6377 66.2104 66.9822C66.9282 65.3266 67.0745 63.4792 66.6261 61.7312C66.1778 59.9833 65.1603 58.4344 63.7342 57.3288C62.3081 56.2231 60.5545 55.6237 58.75 55.625H28.4906C27.7588 55.6251 27.0501 55.3683 26.4881 54.8995C25.9262 54.4306 25.5466 53.7794 25.4156 53.0594L24.2906 46.875H61.2813C62.8914 46.8754 64.4505 46.3107 65.6869 45.2793C66.9233 44.2479 67.7585 42.8153 68.0469 41.2312L71.8437 20.3344C71.8928 20.0647 71.8821 19.7876 71.8125 19.5224C71.7428 19.2573 71.6159 19.0107 71.4406 18.8ZM33.125 63.75C33.125 64.6153 32.8684 65.4611 32.3877 66.1806C31.9069 66.9001 31.2237 67.4608 30.4242 67.792C29.6248 68.1231 28.7451 68.2097 27.8965 68.0409C27.0478 67.8721 26.2683 67.4554 25.6564 66.8436C25.0446 66.2317 24.6279 65.4522 24.4591 64.6035C24.2903 63.7548 24.3769 62.8752 24.708 62.0758C25.0392 61.2763 25.5999 60.593 26.3194 60.1123C27.0388 59.6316 27.8847 59.375 28.75 59.375C29.9103 59.375 31.0231 59.8359 31.8436 60.6564C32.6641 61.4769 33.125 62.5897 33.125 63.75ZM63.125 63.75C63.125 64.6153 62.8684 65.4611 62.3877 66.1806C61.9069 66.9001 61.2237 67.4608 60.4242 67.792C59.6248 68.1231 58.7451 68.2097 57.8965 68.0409C57.0478 67.8721 56.2683 67.4554 55.6564 66.8436C55.0446 66.2317 54.6279 65.4522 54.4591 64.6035C54.2903 63.7548 54.3769 62.8752 54.708 62.0758C55.0392 61.2763 55.5999 60.593 56.3194 60.1123C57.0388 59.6316 57.8847 59.375 58.75 59.375C59.9103 59.375 61.0231 59.8359 61.8436 60.6564C62.6641 61.4769 63.125 62.5897 63.125 63.75ZM64.3563 40.5594C64.2252 41.2794 63.8457 41.9306 63.2837 42.3995C62.7218 42.8683 62.0131 43.1251 61.2813 43.125H23.6094L19.7469 21.875H67.7531L64.3563 40.5594Z" fill="#00BB6B"/>
</svg>
